#!OML:ASF F:\VICON\USERDATA\Patient Classification 1\PLAYGROUND\JustinFriday\JustinFriday.ASF
:FULLY-SPECIFIED
:DEGREES
3524
root -23.1141 17.7425 5.96183 354.303 34.3375 -4.5991
lowerback 13.145 2.97488 2.63079
upperback 1.16225 4.5157 2.40154
thorax -6.12991 2.18566 0.228898
lowerneck -5.76061 3.61101 -0.562897
upperneck -4.07541 4.89387 0.414279
head -0.328306 2.4735 0.279638
rclavicle 9.6659e-014 1.51076e-014
rhumerus -30.0189 -24.7577 -71.7623
rradius 17.2555
rwrist 4.17767
rhand -19.1003 -382.295
rfingers 7.12502
rthumb 7.20837 -412.152
lclavicle 9.6659e-014 1.51076e-014
lhumerus -34.8186 -6.64206 87.2038
lradius 45.0011
lwrist 0.46058
lhand -6.29658 -8.92134
lfingers 7.12502
lthumb 19.5472 20.116
rfemur -1.04594 -0.282603 19.0446
rtibia 59.6436
rfoot 2.45182 -8.8633
rtoes 50.4492
lfemur -11.6614 8.89344 -22.6559
ltibia 19.0726
lfoot -4.90842 3.98538
ltoes 27.1544
3525
root -23.0371 17.7529 6.07283 353.092 35.0499 -5.89364
lowerback 12.9623 2.65332 3.2676
upperback 1.51404 4.20677 3.03125
thorax -5.66248 2.04064 0.608115
lowerneck -5.65953 3.76053 -0.807141
upperneck -4.53578 5.1061 0.150266
head -0.484461 2.58542 0.233661
rclavicle 7.90169e-015 -3.06128e-014
rhumerus -29.1097 -23.7942 -72.273
rradius 17.7896
rwrist 3.08189
rhand -19.5866 -382.234
rfingers 7.12502
rthumb 6.73887 -412.107
lclavicle 7.90169e-015 -3.06128e-014
lhumerus -34.311 -5.44486 87.0278
lradius 44.6191
lwrist -0.246599
lhand -6.78458 -9.62243
lfingers 7.12502
lthumb 19.078 19.4619
rfemur -1.55423 -0.182583 20.3694
rtibia 60.6548
rfoot 1.70597 -9.38008
rtoes 50.4997
lfemur -10.2901 8.87714 -21.4871
ltibia 18.2261
lfoot -4.66914 3.28008
ltoes 26.9671
3526
root -22.9297 17.7632 6.12852 354.682 36.5428 -3.60567
lowerback 12.4868 2.59661 1.95894
upperback 1.52142 3.8965 2.58918
thorax -5.4474 1.9141 0.9515
lowerneck -5.05472 3.63266 -1.17402
upperneck -5.49047 4.95261 0.0215863
head -0.878722 2.52084 0.228622
rclavicle 7.43455e-014 2.62396e-014
rhumerus -28.4538 -22.6931 -72.532
rradius 18.3104
rwrist 1.37799
rhand -19.6842 -382.437
rfingers 7.12502
rthumb 6.64469 -412.313
lclavicle 7.43455e-014 2.62396e-014
lhumerus -34.3953 -5.77545 87.2639
lradius 45.1092
lwrist -0.275373
lhand -6.86928 -9.67961
lfingers 7.12502
lthumb 18.9965 19.4127
rfemur -2.87785 -1.09276 17.6011
rtibia 61.8769
rfoot 1.05768 -8.70321
rtoes 49.4826
lfemur -9.73737 7.86445 -23.9219
ltibia 17.4911
lfoot -4.6906 2.92337
ltoes 28.809
3527
root -22.8409 17.7723 6.19112 355.269 37.6255 -2.41822
lowerback 12.5877 2.81158 1.56478
upperback 1.33995 4.09747 2.02548
thorax -5.68083 2.0101 0.537809
lowerneck -5.25456 3.23492 -0.713027
upperneck -4.69859 4.39711 0.057599
head -0.589974 2.23022 0.173884
rclavicle -7.8023e-015 -1.27222e-014
rhumerus -28.8247 -22.6574 -72.7352
rradius 19.0767
rwrist 0.459526
rhand -19.4579 -383.849
rfingers 7.12502
rthumb 6.86318 -413.718
lclavicle -7.8023e-015 -1.27222e-014
lhumerus -34.5377 -7.02771 87.1446
lradius 45.37
lwrist -0.419599
lhand -6.4402 -9.07427
lfingers 7.12502
lthumb 19.4091 19.9771
rfemur -3.82093 -1.36725 16.2326
rtibia 62.8979
rfoot 0.319221 -8.60495
rtoes 49.0235
lfemur -8.87739 6.96774 -25.1126
ltibia 16.8725
lfoot -4.72541 2.74579
ltoes 30.1232
3528
root -22.7755 17.7793 6.28134 354.951 38.5263 -2.58204
lowerback 12.503 2.35928 1.21982
upperback 1.7119 3.47691 2.5628
thorax -5.29444 1.7256 1.41242
lowerneck -6.70546 3.52791 -2.0348
upperneck -3.92409 4.89007 0.435751
head -0.165388 2.49414 0.547007
rclavicle -1.28514e-013 1.74931e-014
rhumerus -27.3564 -20.3427 -73.5212
rradius 19.6801
rwrist -1.06038
rhand -20.7629 -383.23
rfingers 7.12502
rthumb 5.60331 -413.136
lclavicle -1.28514e-013 1.74931e-014
lhumerus -34.4127 -6.04287 87.1635
lradius 46.2148
lwrist -0.203362
lhand -6.48826 -8.50738
lfingers 7.12502
lthumb 19.3629 20.5486
rfemur -4.78544 -1.22597 16.5152
rtibia 63.8175
rfoot 0.118067 -9.14174
rtoes 47.6237
lfemur -7.94634 7.46475 -25.1231
ltibia 16.1012
lfoot -4.10105 1.64526
ltoes 26.8687
3529
root -22.7143 17.7834 6.37595 354.211 39.395 -3.46571
lowerback 12.452 1.93135 1.46239
upperback 1.89861 2.97993 3.20035
thorax -5.08281 1.4874 2.034
lowerneck -7.18436 3.7919 -3.1344
upperneck -3.86798 5.33526 0.612647
head -0.109281 2.7327 0.801931
rclavicle 2.97183e-014 6.52014e-014
rhumerus -26.4856 -18.9971 -73.7867
rradius 20.3327
rwrist -1.38172
rhand -23.2627 -380.935
rfingers 7.12502
rthumb 3.18939 -410.89
lclavicle 2.97183e-014 6.52014e-014
lhumerus -35.6284 -6.92894 87.4933
lradius 48.6297
lwrist 1.5588
lhand -6.93082 -7.33127
lfingers 7.12502
lthumb 18.9374 21.7669
rfemur -5.71562 -1.14014 17.52
rtibia 64.4968
rfoot 0.462725 -9.70774
rtoes 44.1819
lfemur -7.2446 7.57018 -24.4934
ltibia 15.7747
lfoot -3.88336 0.851709
ltoes 23.1156
3530
root -22.6436 17.7753 6.45354 354.212 40.4978 -3.4022
lowerback 12.3023 1.92557 1.48239
upperback 1.84481 2.96172 3.04112
thorax -5.04619 1.47647 1.86234
lowerneck -6.42022 4.32013 -2.7914
upperneck -5.40386 6.00805 0.594299
head -0.709267 3.08196 0.705635
rclavicle 8.39368e-014 -2.94201e-014
rhumerus -26.5004 -18.9379 -74.2776
rradius 21.0444
rwrist -2.85814
rhand -24.904 -379.45
rfingers 7.12502
rthumb 1.60432 -409.424
lclavicle 8.39368e-014 -2.94201e-014
lhumerus -35.56 -8.36395 87.288
lradius 48.6916
lwrist 2.13723
lhand -7.20924 -6.95589
lfingers 7.12502
lthumb 18.6696 22.1682
rfemur -6.61807 -1.54146 17.4232
rtibia 65.0462
rfoot 0.772809 -9.68301
rtoes 38.0482
lfemur -6.74871 6.94973 -24.7108
ltibia 15.622
lfoot -3.91769 0.517325
ltoes 22.6464
3531
root -22.5726 17.7697 6.52705 354.211 41.5352 -3.12913
lowerback 12.1726 1.74445 1.14158
upperback 2.0245 2.67735 3.16975
thorax -4.80018 1.34574 2.24222
lowerneck -6.00277 3.89236 -1.51756
upperneck -5.43342 5.30758 -1.09159
head -0.688173 2.7132 -0.0289723
rclavicle -9.93923e-017 1.98785e-014
rhumerus -25.791 -17.7023 -74.5405
rradius 21.9004
rwrist -2.73155
rhand -21.5958 -382.686
rfingers 7.12502
rthumb 4.79904 -412.611
lclavicle -9.93923e-017 1.98785e-014
lhumerus -35.9219 -8.62768 87.1619
lradius 50.1315
lwrist 2.5202
lhand -7.36984 -6.09693
lfingers 7.12502
lthumb 18.5151 23.0419
rfemur -7.45761 -1.52288 17.041
rtibia 65.5684
rfoot -0.223953 -9.77437
rtoes 37.1241
lfemur -6.11106 6.40689 -25.0633
ltibia 15.5296
lfoot -4.01469 0.10473
ltoes 23.0549
3532
root -22.503 17.7644 6.59647 354.392 42.432 -2.64468
lowerback 12.0633 1.66969 0.65357
upperback 2.15808 2.51721 3.28898
thorax -4.62037 1.2764 2.67321
lowerneck -9.10248 3.39101 -2.91833
upperneck -1.4689 4.8413 0.3692
head 0.982579 2.45271 0.770865
rclavicle -8.95525e-014 -3.97569e-015
rhumerus -25.2921 -16.0746 -74.8481
rradius 23.0281
rwrist -4.17513
rhand -20.2664 -384.104
rfingers 7.12502
rthumb 6.08265 -413.997
lclavicle -8.95525e-014 -3.97569e-015
lhumerus -33.1067 -3.60473 86.1479
lradius 45.9446
lwrist -2.05116
lhand -6.97482 -8.7969
lfingers 7.12502
lthumb 18.895 20.3054
rfemur -8.41113 -1.16262 16.4984
rtibia 66.0039
rfoot -1.50387 -9.6854
rtoes 36.8539
lfemur -5.605 6.06923 -25.5504
ltibia 15.5436
lfoot -4.12011 -0.438275
ltoes 23.7571
